<?xml version="1.0" encoding="UTF-8" standalone="no"?><!DOCTYPE score-partwise PUBLIC "-//Recordare//DTD MusicXML 3.0 Partwise//EN" "http://www.musicxml.org/dtds/partwise.dtd"><score-partwise version="3.0"><work><work-title>Conway's Origination</work-title></work><identification><rights>Copyright, All rights reserved</rights><encoding><software>Flat</software><encoding-date>2019-05-05</encoding-date></encoding><source>https://flat.io/score/5c0aaf2b6c89eb2d95bb54b6-conways-origination</source></identification><defaults><scaling><millimeters>7</millimeters><tenths>40</tenths></scaling><page-layout><page-height>1596.5714285714287</page-height><page-width>1233.7142857142858</page-width><page-margins type="both"><left-margin>38.857142857142854</left-margin><right-margin>38.857142857142854</right-margin><top-margin>38.857142857142854</top-margin><bottom-margin>38.857142857142854</bottom-margin></page-margins></page-layout><system-layout><system-distance>115.2</system-distance></system-layout><staff-layout><staff-distance>72.57142857142857</staff-distance></staff-layout></defaults><credit><credit-type>title</credit-type><credit-words>Conway's Origination</credit-words></credit><credit><credit-type>subtitle</credit-type><credit-words>Birth</credit-words></credit><part-list><score-part id="P1"><part-name>Piano</part-name><part-abbreviation>Pno.</part-abbreviation><score-instrument id="P1-I1"><instrument-name>Grand Piano</instrument-name></score-instrument><midi-instrument id="P1-I1"><midi-channel>1</midi-channel><midi-program>1</midi-program><volume>100</volume></midi-instrument></score-part></part-list><part id="P1"><measure number="1"><attributes><divisions>48</divisions><key><fifths>0</fifths></key><time><beats>4</beats><beat-type>4</beat-type></time><staves>2</staves><clef number="1"><sign>G</sign><line>2</line></clef><clef number="2"><sign>F</sign><line>4</line></clef><staff-details><staff-lines>5</staff-lines></staff-details></attributes><sound/><sound tempo="110"/><direction placement="above"><direction-type><words>Block</words></direction-type><staff>1</staff></direction><direction placement="above"><direction-type><metronome><beat-unit>quarter</beat-unit><per-minute>110</per-minute></metronome></direction-type><staff>1</staff></direction><note><pitch><step>A</step><octave>3</octave></pitch><duration>192</duration><voice>1</voice><type>whole</type><staff>1</staff></note><backup><duration>192</duration></backup><note><pitch><step>A</step><octave>1</octave></pitch><duration>192</duration><voice>2</voice><type>whole</type><staff>2</staff></note><note><chord/><pitch><step>A</step><octave>2</octave></pitch><duration>192</duration><voice>2</voice><type>whole</type><staff>2</staff></note></measure><measure number="2"><attributes><divisions>80</divisions></attributes><note><pitch><step>A</step><octave>3</octave></pitch><duration>320</duration><voice>1</voice><type>whole</type><staff>1</staff></note><backup><duration>320</duration></backup><note><pitch><step>E</step><octave>3</octave></pitch><duration>320</duration><voice>2</voice><type>whole</type><staff>2</staff></note><note><chord/><pitch><step>A</step><octave>2</octave></pitch><duration>320</duration><voice>2</voice><type>whole</type><staff>2</staff></note></measure><measure number="3"><attributes/><note><pitch><step>A</step><octave>3</octave></pitch><duration>320</duration><voice>1</voice><type>whole</type><staff>1</staff></note><backup><duration>320</duration></backup><note><pitch><step>A</step><octave>2</octave></pitch><duration>320</duration><voice>2</voice><type>whole</type><staff>2</staff></note><note><chord/><pitch><step>A</step><octave>1</octave></pitch><duration>320</duration><voice>2</voice><type>whole</type><staff>2</staff></note></measure><measure number="4"><attributes/><note><pitch><step>A</step><octave>3</octave></pitch><duration>160</duration><voice>1</voice><type>half</type><staff>1</staff></note><note><pitch><step>B</step><octave>3</octave></pitch><duration>160</duration><voice>1</voice><type>half</type><staff>1</staff></note><backup><duration>320</duration></backup><note><pitch><step>E</step><octave>3</octave></pitch><duration>320</duration><voice>2</voice><type>whole</type><staff>2</staff></note><note><chord/><pitch><step>G</step><octave>2</octave></pitch><duration>320</duration><voice>2</voice><type>whole</type><staff>2</staff></note></measure><measure number="5"><attributes/><note><pitch><step>C</step><octave>4</octave></pitch><duration>160</duration><voice>1</voice><type>half</type><staff>1</staff></note><note><pitch><step>D</step><octave>4</octave></pitch><duration>160</duration><voice>1</voice><type>half</type><staff>1</staff></note><backup><duration>320</duration></backup><note><pitch><step>C</step><octave>3</octave></pitch><duration>320</duration><voice>2</voice><type>whole</type><staff>2</staff></note><note><chord/><pitch><step>G</step><octave>3</octave></pitch><duration>320</duration><voice>2</voice><type>whole</type><staff>2</staff></note></measure><measure number="6"><attributes/><note><pitch><step>F</step><octave>4</octave></pitch><duration>240</duration><voice>1</voice><type>half</type><dot/><staff>1</staff></note><note><pitch><step>E</step><octave>4</octave></pitch><duration>80</duration><voice>1</voice><type>quarter</type><staff>1</staff></note><backup><duration>320</duration></backup><note><pitch><step>C</step><octave>4</octave></pitch><duration>320</duration><voice>2</voice><type>whole</type><staff>2</staff></note><note><chord/><pitch><step>F</step><octave>3</octave></pitch><duration>320</duration><voice>2</voice><type>whole</type><staff>2</staff></note></measure><measure number="7"><attributes/><note><pitch><step>A</step><octave>3</octave></pitch><duration>160</duration><voice>1</voice><type>half</type><staff>1</staff></note><note><pitch><step>C</step><octave>4</octave></pitch><duration>80</duration><voice>1</voice><type>quarter</type><staff>1</staff></note><note><pitch><step>D</step><octave>4</octave></pitch><duration>80</duration><voice>1</voice><type>quarter</type><staff>1</staff></note><backup><duration>320</duration></backup><note><pitch><step>A</step><octave>2</octave></pitch><duration>320</duration><voice>2</voice><type>whole</type><staff>2</staff></note><note><chord/><pitch><step>E</step><octave>3</octave></pitch><duration>320</duration><voice>2</voice><type>whole</type><staff>2</staff></note></measure><measure number="8"><attributes/><note><pitch><step>E</step><octave>4</octave></pitch><duration>160</duration><voice>1</voice><type>half</type><staff>1</staff></note><note><pitch><step>F</step><octave>4</octave></pitch><duration>80</duration><voice>1</voice><type>quarter</type><staff>1</staff></note><note><pitch><step>G</step><octave>4</octave></pitch><duration>80</duration><voice>1</voice><type>quarter</type><staff>1</staff></note><backup><duration>320</duration></backup><note><pitch><step>G</step><octave>3</octave></pitch><duration>320</duration><voice>2</voice><type>whole</type><staff>2</staff></note><note><chord/><pitch><step>C</step><octave>3</octave></pitch><duration>320</duration><voice>2</voice><type>whole</type><staff>2</staff></note></measure><measure number="9"><attributes/><note><pitch><step>D</step><octave>4</octave></pitch><duration>240</duration><voice>1</voice><type>half</type><dot/><staff>1</staff></note><note><pitch><step>C</step><octave>4</octave></pitch><duration>40</duration><voice>1</voice><type>eighth</type><staff>1</staff><beam number="1">begin</beam></note><note><pitch><step>B</step><octave>3</octave></pitch><duration>40</duration><voice>1</voice><type>eighth</type><staff>1</staff><beam number="1">end</beam></note><backup><duration>320</duration></backup><note><pitch><step>D</step><octave>3</octave></pitch><duration>320</duration><voice>2</voice><type>whole</type><staff>2</staff></note><note><chord/><pitch><step>G</step><octave>2</octave></pitch><duration>320</duration><voice>2</voice><type>whole</type><staff>2</staff></note></measure><measure number="10"><barline location="left"><bar-style>heavy-light</bar-style><repeat direction="forward" times="1" winged="none"/></barline><attributes/><note><pitch><step>A</step><octave>3</octave></pitch><duration>160</duration><voice>1</voice><type>half</type><staff>1</staff></note><note><pitch><step>C</step><octave>4</octave></pitch><duration>160</duration><voice>1</voice><type>half</type><staff>1</staff></note><backup><duration>320</duration></backup><note><pitch><step>A</step><octave>2</octave></pitch><duration>320</duration><voice>2</voice><type>whole</type><staff>2</staff></note><note><chord/><pitch><step>E</step><octave>3</octave></pitch><duration>320</duration><voice>2</voice><type>whole</type><staff>2</staff></note><barline location="right"><bar-style>light-heavy</bar-style><repeat direction="backward" times="1" winged="none"/></barline></measure><measure number="11"><barline location="left"><bar-style>heavy-light</bar-style><repeat direction="forward" times="1" winged="none"/></barline><attributes><divisions>16</divisions></attributes><direction placement="above"><direction-type><words>Blinker</words></direction-type><staff>1</staff></direction><note><pitch><step>A</step><octave>3</octave></pitch><duration>16</duration><voice>1</voice><type>quarter</type><staff>1</staff></note><note><pitch><step>C</step><octave>4</octave></pitch><duration>16</duration><voice>1</voice><type>quarter</type><staff>1</staff></note><note><pitch><step>A</step><octave>3</octave></pitch><duration>16</duration><voice>1</voice><type>quarter</type><staff>1</staff></note><note><pitch><step>C</step><octave>4</octave></pitch><duration>16</duration><voice>1</voice><type>quarter</type><staff>1</staff></note><backup><duration>64</duration></backup><note><pitch><step>E</step><octave>3</octave></pitch><duration>64</duration><voice>2</voice><type>whole</type><staff>2</staff></note><note><chord/><pitch><step>A</step><octave>2</octave></pitch><duration>64</duration><voice>2</voice><type>whole</type><staff>2</staff></note><barline location="right"><bar-style>light-heavy</bar-style><repeat direction="backward" times="1" winged="none"/></barline></measure><measure number="12"><attributes/><note><pitch><step>A</step><octave>3</octave></pitch><duration>16</duration><voice>1</voice><type>quarter</type><staff>1</staff></note><note><pitch><step>C</step><octave>4</octave></pitch><duration>16</duration><voice>1</voice><type>quarter</type><staff>1</staff></note><note><pitch><step>A</step><octave>4</octave></pitch><duration>32</duration><voice>1</voice><type>half</type><staff>1</staff></note><backup><duration>64</duration></backup><note><pitch><step>A</step><octave>2</octave></pitch><duration>64</duration><voice>2</voice><type>whole</type><staff>2</staff></note><note><chord/><pitch><step>E</step><octave>3</octave></pitch><duration>64</duration><voice>2</voice><type>whole</type><staff>2</staff></note></measure><measure number="13"><attributes><divisions>48</divisions></attributes><note><pitch><step>G</step><alter>1</alter><octave>3</octave></pitch><duration>48</duration><voice>1</voice><type>quarter</type><accidental>sharp</accidental><staff>1</staff></note><note><pitch><step>B</step><octave>3</octave></pitch><duration>48</duration><voice>1</voice><type>quarter</type><staff>1</staff></note><note><pitch><step>F</step><octave>4</octave></pitch><duration>96</duration><voice>1</voice><type>half</type><staff>1</staff></note><backup><duration>192</duration></backup><note><pitch><step>D</step><octave>3</octave></pitch><duration>192</duration><voice>2</voice><type>whole</type><staff>2</staff></note><note><chord/><pitch><step>G</step><alter>1</alter><octave>2</octave></pitch><duration>192</duration><voice>2</voice><type>whole</type><accidental>sharp</accidental><staff>2</staff></note></measure><measure number="14"><attributes/><note><pitch><step>A</step><octave>3</octave></pitch><duration>48</duration><voice>1</voice><type>quarter</type><staff>1</staff></note><note><pitch><step>C</step><octave>4</octave></pitch><duration>48</duration><voice>1</voice><type>quarter</type><staff>1</staff></note><note><pitch><step>A</step><octave>4</octave></pitch><duration>96</duration><voice>1</voice><type>half</type><staff>1</staff></note><backup><duration>192</duration></backup><note><pitch><step>E</step><octave>3</octave></pitch><duration>192</duration><voice>2</voice><type>whole</type><staff>2</staff></note><note><chord/><pitch><step>A</step><octave>2</octave></pitch><duration>192</duration><voice>2</voice><type>whole</type><staff>2</staff></note></measure><measure number="15"><attributes/><note><pitch><step>G</step><alter>1</alter><octave>3</octave></pitch><duration>48</duration><voice>1</voice><type>quarter</type><accidental>sharp</accidental><staff>1</staff></note><note><pitch><step>B</step><octave>3</octave></pitch><duration>48</duration><voice>1</voice><type>quarter</type><staff>1</staff></note><note><pitch><step>F</step><octave>4</octave></pitch><duration>48</duration><voice>1</voice><type>quarter</type><staff>1</staff></note><note><pitch><step>E</step><octave>4</octave></pitch><duration>48</duration><voice>1</voice><type>quarter</type><staff>1</staff></note><backup><duration>192</duration></backup><note><pitch><step>D</step><octave>3</octave></pitch><duration>192</duration><voice>2</voice><type>whole</type><staff>2</staff></note><note><chord/><pitch><step>G</step><alter>1</alter><octave>2</octave></pitch><duration>192</duration><voice>2</voice><type>whole</type><accidental>sharp</accidental><staff>2</staff></note></measure><measure number="16"><attributes/><note><pitch><step>A</step><octave>3</octave></pitch><duration>48</duration><voice>1</voice><type>quarter</type><staff>1</staff></note><note><pitch><step>C</step><octave>4</octave></pitch><duration>48</duration><voice>1</voice><type>quarter</type><staff>1</staff></note><note><pitch><step>E</step><octave>4</octave></pitch><duration>48</duration><voice>1</voice><type>quarter</type><staff>1</staff></note><note><pitch><step>A</step><octave>4</octave></pitch><duration>48</duration><voice>1</voice><type>quarter</type><staff>1</staff></note><backup><duration>192</duration></backup><note><pitch><step>E</step><octave>3</octave></pitch><duration>192</duration><voice>2</voice><type>whole</type><staff>2</staff></note><note><chord/><pitch><step>A</step><octave>2</octave></pitch><duration>192</duration><voice>2</voice><type>whole</type><staff>2</staff></note></measure><measure number="17"><attributes/><note><pitch><step>E</step><octave>4</octave></pitch><duration>48</duration><voice>1</voice><type>quarter</type><staff>1</staff></note><note><pitch><step>A</step><octave>4</octave></pitch><duration>48</duration><voice>1</voice><type>quarter</type><staff>1</staff></note><note><pitch><step>E</step><octave>4</octave></pitch><duration>48</duration><voice>1</voice><type>quarter</type><staff>1</staff></note><note><pitch><step>A</step><octave>4</octave></pitch><duration>48</duration><voice>1</voice><type>quarter</type><staff>1</staff></note><backup><duration>192</duration></backup><note><pitch><step>D</step><octave>3</octave></pitch><duration>192</duration><voice>2</voice><type>whole</type><staff>2</staff></note><note><chord/><pitch><step>G</step><alter>1</alter><octave>2</octave></pitch><duration>192</duration><voice>2</voice><type>whole</type><accidental>sharp</accidental><staff>2</staff></note></measure><measure number="18"><attributes/><note><pitch><step>E</step><octave>4</octave></pitch><duration>48</duration><voice>1</voice><type>quarter</type><staff>1</staff></note><note><pitch><step>A</step><octave>4</octave></pitch><duration>48</duration><voice>1</voice><type>quarter</type><staff>1</staff></note><note><pitch><step>E</step><octave>4</octave></pitch><duration>48</duration><voice>1</voice><type>quarter</type><staff>1</staff></note><note><pitch><step>A</step><octave>4</octave></pitch><duration>48</duration><voice>1</voice><type>quarter</type><staff>1</staff></note><backup><duration>192</duration></backup><note><pitch><step>A</step><octave>3</octave></pitch><duration>192</duration><voice>2</voice><type>whole</type><staff>2</staff></note><note><chord/><pitch><step>D</step><octave>3</octave></pitch><duration>192</duration><voice>2</voice><type>whole</type><staff>2</staff></note></measure><measure number="19"><attributes/><note><pitch><step>C</step><octave>5</octave></pitch><duration>48</duration><voice>1</voice><type>quarter</type><staff>1</staff></note><note><pitch><step>E</step><octave>5</octave></pitch><duration>24</duration><voice>1</voice><type>eighth</type><staff>1</staff><beam number="1">begin</beam></note><note><pitch><step>C</step><octave>5</octave></pitch><duration>24</duration><voice>1</voice><type>eighth</type><staff>1</staff><beam number="1">end</beam></note><note><pitch><step>E</step><octave>5</octave></pitch><duration>24</duration><voice>1</voice><type>eighth</type><staff>1</staff><beam number="1">begin</beam></note><note><pitch><step>C</step><octave>5</octave></pitch><duration>24</duration><voice>1</voice><type>eighth</type><staff>1</staff><beam number="1">end</beam></note><note><pitch><step>E</step><octave>5</octave></pitch><duration>48</duration><voice>1</voice><type>quarter</type><staff>1</staff></note><backup><duration>192</duration></backup><note><pitch><step>D</step><octave>4</octave></pitch><duration>192</duration><voice>2</voice><type>whole</type><staff>2</staff></note><note><chord/><pitch><step>G</step><alter>1</alter><octave>3</octave></pitch><duration>192</duration><voice>2</voice><type>whole</type><accidental>sharp</accidental><staff>2</staff></note></measure><measure number="20"><attributes/><note><pitch><step>A</step><octave>5</octave></pitch><duration>96</duration><voice>1</voice><type>half</type><staff>1</staff></note><note><pitch><step>F</step><octave>5</octave></pitch><duration>48</duration><voice>1</voice><type>quarter</type><staff>1</staff></note><note><pitch><step>G</step><alter>1</alter><octave>5</octave></pitch><duration>48</duration><voice>1</voice><type>quarter</type><accidental>sharp</accidental><staff>1</staff></note><backup><duration>192</duration></backup><note><pitch><step>E</step><octave>3</octave></pitch><duration>192</duration><voice>2</voice><type>whole</type><staff>2</staff></note><note><chord/><pitch><step>A</step><octave>2</octave></pitch><duration>192</duration><voice>2</voice><type>whole</type><staff>2</staff></note></measure><measure number="21"><attributes/><note><pitch><step>E</step><octave>5</octave></pitch><duration>24</duration><voice>1</voice><type>eighth</type><staff>1</staff></note><note><pitch><step>A</step><octave>4</octave></pitch><duration>96</duration><voice>1</voice><type>half</type><staff>1</staff></note><note><pitch><step>F</step><octave>4</octave></pitch><duration>48</duration><voice>1</voice><type>quarter</type><staff>1</staff></note><note><pitch><step>G</step><alter>1</alter><octave>4</octave></pitch><duration>24</duration><voice>1</voice><type>eighth</type><accidental>sharp</accidental><staff>1</staff></note><backup><duration>192</duration></backup><note><rest/><duration>24</duration><voice>2</voice><type>eighth</type><staff>2</staff></note><note><pitch><step>A</step><octave>2</octave></pitch><duration>168</duration><voice>2</voice><type>half</type><dot/><dot/><staff>2</staff></note><note><chord/><pitch><step>E</step><octave>3</octave></pitch><duration>168</duration><voice>2</voice><type>half</type><dot/><dot/><staff>2</staff></note></measure><measure number="22"><attributes/><note><pitch><step>E</step><octave>4</octave></pitch><duration>24</duration><voice>1</voice><type>eighth</type><staff>1</staff></note><note><pitch><step>A</step><octave>3</octave></pitch><duration>48</duration><voice>1</voice><type>quarter</type><staff>1</staff></note><note><pitch><step>G</step><alter>1</alter><octave>3</octave></pitch><duration>24</duration><voice>1</voice><type>eighth</type><accidental>sharp</accidental><staff>1</staff></note><note><pitch><step>A</step><octave>3</octave></pitch><duration>48</duration><voice>1</voice><type>quarter</type><staff>1</staff></note><note><pitch><step>B</step><octave>3</octave></pitch><duration>24</duration><voice>1</voice><type>eighth</type><staff>1</staff><beam number="1">begin</beam></note><note><pitch><step>C</step><octave>4</octave></pitch><duration>24</duration><voice>1</voice><type>eighth</type><staff>1</staff><beam number="1">end</beam></note><backup><duration>192</duration></backup><note><pitch><step>A</step><octave>2</octave></pitch><duration>192</duration><voice>2</voice><type>whole</type><staff>2</staff></note><note><chord/><pitch><step>E</step><octave>3</octave></pitch><duration>192</duration><voice>2</voice><type>whole</type><staff>2</staff></note></measure><measure number="23"><attributes/><note><pitch><step>B</step><octave>3</octave></pitch><duration>48</duration><voice>1</voice><type>quarter</type><staff>1</staff></note><note><pitch><step>A</step><octave>3</octave></pitch><duration>144</duration><voice>1</voice><type>half</type><dot/><staff>1</staff></note><backup><duration>192</duration></backup><note><rest/><duration>48</duration><voice>2</voice><type>quarter</type><staff>2</staff></note><note><pitch><step>E</step><octave>3</octave></pitch><duration>144</duration><voice>2</voice><type>half</type><dot/><staff>2</staff></note><note><chord/><pitch><step>A</step><octave>2</octave></pitch><duration>144</duration><voice>2</voice><type>half</type><dot/><staff>2</staff></note></measure><measure number="24"><attributes/><note><pitch><step>A</step><octave>3</octave></pitch><duration>48</duration><voice>1</voice><type>quarter</type><staff>1</staff></note><note><pitch><step>C</step><octave>4</octave></pitch><duration>48</duration><voice>1</voice><type>quarter</type><staff>1</staff></note><note><pitch><step>E</step><octave>4</octave></pitch><duration>48</duration><voice>1</voice><type>quarter</type><staff>1</staff></note><note><pitch><step>G</step><alter>1</alter><octave>4</octave></pitch><duration>48</duration><voice>1</voice><type>quarter</type><accidental>sharp</accidental><staff>1</staff></note><backup><duration>192</duration></backup><note><pitch><step>D</step><octave>3</octave></pitch><duration>192</duration><voice>2</voice><type>whole</type><staff>2</staff></note><note><chord/><pitch><step>A</step><octave>3</octave></pitch><duration>192</duration><voice>2</voice><type>whole</type><staff>2</staff></note></measure><measure number="25"><attributes/><note><pitch><step>D</step><octave>5</octave></pitch><duration>48</duration><voice>1</voice><type>quarter</type><staff>1</staff></note><note><pitch><step>C</step><octave>5</octave></pitch><duration>24</duration><voice>1</voice><type>eighth</type><staff>1</staff><beam number="1">begin</beam></note><note><pitch><step>B</step><octave>4</octave></pitch><duration>24</duration><voice>1</voice><type>eighth</type><staff>1</staff><beam number="1">end</beam></note><note><pitch><step>A</step><octave>4</octave></pitch><duration>48</duration><voice>1</voice><type>quarter</type><staff>1</staff></note><note><pitch><step>G</step><alter>1</alter><octave>4</octave></pitch><duration>48</duration><voice>1</voice><type>quarter</type><accidental>sharp</accidental><staff>1</staff></note><backup><duration>192</duration></backup><note><pitch><step>C</step><octave>3</octave></pitch><duration>192</duration><voice>2</voice><type>whole</type><staff>2</staff></note><note><chord/><pitch><step>G</step><octave>3</octave></pitch><duration>192</duration><voice>2</voice><type>whole</type><staff>2</staff></note></measure><measure number="26"><attributes/><note><pitch><step>E</step><octave>4</octave></pitch><duration>48</duration><voice>1</voice><type>quarter</type><staff>1</staff></note><note><pitch><step>A</step><octave>4</octave></pitch><duration>48</duration><voice>1</voice><type>quarter</type><staff>1</staff></note><note><pitch><step>E</step><octave>4</octave></pitch><duration>48</duration><voice>1</voice><type>quarter</type><staff>1</staff></note><note><pitch><step>A</step><octave>4</octave></pitch><duration>48</duration><voice>1</voice><type>quarter</type><staff>1</staff></note><backup><duration>192</duration></backup><note><pitch><step>A</step><octave>2</octave></pitch><duration>192</duration><voice>2</voice><type>whole</type><staff>2</staff></note><note><chord/><pitch><step>E</step><octave>3</octave></pitch><duration>192</duration><voice>2</voice><type>whole</type><staff>2</staff></note></measure><measure number="27"><attributes/><note><pitch><step>E</step><octave>4</octave></pitch><duration>48</duration><voice>1</voice><type>quarter</type><staff>1</staff></note><note><pitch><step>A</step><octave>4</octave></pitch><duration>48</duration><voice>1</voice><type>quarter</type><staff>1</staff></note><note><pitch><step>C</step><octave>5</octave></pitch><duration>96</duration><voice>1</voice><type>half</type><staff>1</staff></note><backup><duration>192</duration></backup><note><pitch><step>G</step><alter>1</alter><octave>2</octave></pitch><duration>192</duration><voice>2</voice><type>whole</type><accidental>sharp</accidental><staff>2</staff></note><note><chord/><pitch><step>D</step><octave>3</octave></pitch><duration>192</duration><voice>2</voice><type>whole</type><staff>2</staff></note></measure><measure number="28"><attributes/><note><pitch><step>G</step><alter>1</alter><octave>4</octave></pitch><duration>96</duration><voice>1</voice><type>half</type><accidental>sharp</accidental><staff>1</staff></note><note><pitch><step>A</step><octave>4</octave></pitch><duration>48</duration><voice>1</voice><type>quarter</type><staff>1</staff></note><note><pitch><step>B</step><octave>4</octave></pitch><duration>48</duration><voice>1</voice><type>quarter</type><staff>1</staff></note><backup><duration>192</duration></backup><note><pitch><step>D</step><octave>3</octave></pitch><duration>192</duration><voice>2</voice><type>whole</type><staff>2</staff></note><note><chord/><pitch><step>A</step><octave>3</octave></pitch><duration>192</duration><voice>2</voice><type>whole</type><staff>2</staff></note></measure><measure number="29"><attributes/><note><pitch><step>E</step><octave>4</octave></pitch><duration>48</duration><voice>1</voice><type>quarter</type><staff>1</staff></note><note><pitch><step>E</step><octave>5</octave></pitch><duration>48</duration><voice>1</voice><type>quarter</type><staff>1</staff></note><note><pitch><step>E</step><octave>4</octave></pitch><duration>48</duration><voice>1</voice><type>quarter</type><staff>1</staff></note><note><pitch><step>E</step><octave>5</octave></pitch><duration>48</duration><voice>1</voice><type>quarter</type><staff>1</staff></note><backup><duration>192</duration></backup><note><rest/><duration>48</duration><voice>2</voice><type>quarter</type><staff>2</staff></note><note><rest/><duration>48</duration><voice>2</voice><type>quarter</type><staff>2</staff></note><note><rest/><duration>48</duration><voice>2</voice><type>quarter</type><staff>2</staff></note><note><rest/><duration>48</duration><voice>2</voice><type>quarter</type><staff>2</staff></note></measure><measure number="30"><attributes/><note><rest/><duration>48</duration><voice>1</voice><type>quarter</type><staff>1</staff></note><note><pitch><step>C</step><octave>5</octave></pitch><duration>48</duration><voice>1</voice><type>quarter</type><staff>1</staff></note><note><rest/><duration>48</duration><voice>1</voice><type>quarter</type><staff>1</staff></note><note><pitch><step>B</step><octave>4</octave></pitch><duration>48</duration><voice>1</voice><type>quarter</type><staff>1</staff></note><backup><duration>192</duration></backup><note><pitch><step>E</step><octave>3</octave></pitch><duration>192</duration><voice>2</voice><type>whole</type><staff>2</staff></note><note><chord/><pitch><step>A</step><octave>2</octave></pitch><duration>192</duration><voice>2</voice><type>whole</type><staff>2</staff></note></measure><measure number="31"><attributes/><note><pitch><step>C</step><octave>5</octave></pitch><duration>96</duration><voice>1</voice><type>half</type><staff>1</staff></note><note><pitch><step>D</step><octave>5</octave></pitch><duration>24</duration><voice>1</voice><type>eighth</type><staff>1</staff><beam number="1">begin</beam></note><note><pitch><step>C</step><octave>5</octave></pitch><duration>24</duration><voice>1</voice><type>eighth</type><staff>1</staff><beam number="1">end</beam></note><note><pitch><step>B</step><octave>4</octave></pitch><duration>48</duration><voice>1</voice><type>quarter</type><staff>1</staff></note><backup><duration>192</duration></backup><note><pitch><step>G</step><alter>1</alter><octave>2</octave></pitch><duration>192</duration><voice>2</voice><type>whole</type><accidental>sharp</accidental><staff>2</staff></note><note><chord/><pitch><step>D</step><octave>3</octave></pitch><duration>192</duration><voice>2</voice><type>whole</type><staff>2</staff></note></measure><measure number="32"><attributes/><note><pitch><step>A</step><octave>4</octave></pitch><duration>96</duration><voice>1</voice><type>half</type><staff>1</staff></note><note><pitch><step>B</step><octave>4</octave></pitch><duration>24</duration><voice>1</voice><type>eighth</type><staff>1</staff><beam number="1">begin</beam></note><note><pitch><step>A</step><octave>4</octave></pitch><duration>24</duration><voice>1</voice><type>eighth</type><staff>1</staff><beam number="1">end</beam></note><note><pitch><step>G</step><alter>1</alter><octave>4</octave></pitch><duration>48</duration><voice>1</voice><type>quarter</type><accidental>sharp</accidental><staff>1</staff></note><backup><duration>192</duration></backup><note><pitch><step>E</step><octave>3</octave></pitch><duration>192</duration><voice>2</voice><type>whole</type><staff>2</staff></note><note><chord/><pitch><step>A</step><octave>2</octave></pitch><duration>192</duration><voice>2</voice><type>whole</type><staff>2</staff></note></measure><measure number="33"><attributes/><note><pitch><step>A</step><octave>4</octave></pitch><duration>192</duration><voice>1</voice><type>whole</type><staff>1</staff></note><backup><duration>192</duration></backup><note><pitch><step>D</step><octave>3</octave></pitch><duration>96</duration><voice>2</voice><type>half</type><staff>2</staff></note><note><chord/><pitch><step>A</step><octave>3</octave></pitch><duration>96</duration><voice>2</voice><type>half</type><staff>2</staff></note><note><pitch><step>C</step><octave>3</octave></pitch><duration>96</duration><voice>2</voice><type>half</type><staff>2</staff></note><note><chord/><pitch><step>G</step><octave>3</octave></pitch><duration>96</duration><voice>2</voice><type>half</type><staff>2</staff></note></measure><measure number="34"><attributes/><note><pitch><step>E</step><octave>4</octave></pitch><duration>48</duration><voice>1</voice><type>quarter</type><staff>1</staff></note><note><pitch><step>A</step><octave>4</octave></pitch><duration>48</duration><voice>1</voice><type>quarter</type><staff>1</staff></note><note><pitch><step>C</step><octave>5</octave></pitch><duration>48</duration><voice>1</voice><type>quarter</type><staff>1</staff></note><note><pitch><step>A</step><octave>4</octave></pitch><duration>48</duration><voice>1</voice><type>quarter</type><staff>1</staff></note><backup><duration>192</duration></backup><note><pitch><step>E</step><octave>3</octave></pitch><duration>192</duration><tie type="start"/><voice>2</voice><type>whole</type><staff>2</staff><notations><tied type="start"/></notations></note><note><chord/><pitch><step>A</step><octave>2</octave></pitch><duration>192</duration><tie type="start"/><voice>2</voice><type>whole</type><staff>2</staff><notations><tied type="start"/></notations></note></measure><measure number="35"><attributes/><note><pitch><step>C</step><octave>5</octave></pitch><duration>48</duration><voice>1</voice><type>quarter</type><staff>1</staff></note><note><pitch><step>E</step><octave>5</octave></pitch><duration>48</duration><voice>1</voice><type>quarter</type><staff>1</staff></note><note><pitch><step>C</step><octave>5</octave></pitch><duration>48</duration><voice>1</voice><type>quarter</type><staff>1</staff></note><note><pitch><step>E</step><octave>5</octave></pitch><duration>48</duration><voice>1</voice><type>quarter</type><staff>1</staff></note><backup><duration>192</duration></backup><note><pitch><step>E</step><octave>3</octave></pitch><duration>192</duration><tie type="stop"/><voice>2</voice><type>whole</type><staff>2</staff><notations><tied type="stop"/></notations></note><note><chord/><pitch><step>A</step><octave>2</octave></pitch><duration>192</duration><tie type="stop"/><voice>2</voice><type>whole</type><staff>2</staff><notations><tied type="stop"/></notations></note></measure><measure number="36"><attributes><divisions>16</divisions></attributes><direction placement="above"><direction-type><words>Glider</words></direction-type><staff>1</staff></direction><note><pitch><step>A</step><octave>5</octave></pitch><duration>16</duration><voice>1</voice><type>quarter</type><staff>1</staff></note><note><pitch><step>G</step><alter>1</alter><octave>5</octave></pitch><duration>16</duration><voice>1</voice><type>quarter</type><accidental>sharp</accidental><staff>1</staff></note><note><pitch><step>F</step><octave>5</octave></pitch><duration>16</duration><voice>1</voice><type>quarter</type><staff>1</staff></note><note><pitch><step>D</step><octave>5</octave></pitch><duration>16</duration><voice>1</voice><type>quarter</type><staff>1</staff></note><backup><duration>64</duration></backup><note><pitch><step>D</step><octave>3</octave></pitch><duration>64</duration><voice>2</voice><type>whole</type><staff>2</staff></note><note><chord/><pitch><step>A</step><octave>3</octave></pitch><duration>64</duration><voice>2</voice><type>whole</type><staff>2</staff></note></measure><measure number="37"><attributes/><note><pitch><step>A</step><octave>4</octave></pitch><duration>16</duration><voice>1</voice><type>quarter</type><staff>1</staff></note><note><pitch><step>G</step><alter>1</alter><octave>4</octave></pitch><duration>16</duration><voice>1</voice><type>quarter</type><accidental>sharp</accidental><staff>1</staff></note><note><pitch><step>F</step><octave>4</octave></pitch><duration>16</duration><voice>1</voice><type>quarter</type><staff>1</staff></note><note><pitch><step>D</step><octave>4</octave></pitch><duration>16</duration><voice>1</voice><type>quarter</type><staff>1</staff></note><backup><duration>64</duration></backup><note><pitch><step>E</step><octave>3</octave></pitch><duration>64</duration><voice>2</voice><type>whole</type><staff>2</staff></note><note><chord/><pitch><step>A</step><octave>2</octave></pitch><duration>64</duration><voice>2</voice><type>whole</type><staff>2</staff></note></measure><measure number="38"><attributes/><note><pitch><step>A</step><octave>3</octave></pitch><duration>16</duration><voice>1</voice><type>quarter</type><staff>1</staff></note><note><pitch><step>G</step><alter>1</alter><octave>3</octave></pitch><duration>16</duration><voice>1</voice><type>quarter</type><accidental>sharp</accidental><staff>1</staff></note><note><pitch><step>F</step><octave>3</octave></pitch><duration>16</duration><voice>1</voice><type>quarter</type><staff>1</staff></note><note><pitch><step>D</step><octave>3</octave></pitch><duration>16</duration><voice>1</voice><type>quarter</type><staff>1</staff></note><backup><duration>64</duration></backup><note><pitch><step>A</step><octave>1</octave></pitch><duration>64</duration><voice>2</voice><type>whole</type><staff>2</staff></note><note><chord/><pitch><step>A</step><octave>2</octave></pitch><duration>64</duration><voice>2</voice><type>whole</type><staff>2</staff></note></measure><measure number="39"><attributes/><note><pitch><step>A</step><octave>4</octave></pitch><duration>16</duration><voice>1</voice><type>quarter</type><staff>1</staff></note><note><pitch><step>G</step><alter>1</alter><octave>4</octave></pitch><duration>16</duration><voice>1</voice><type>quarter</type><accidental>sharp</accidental><staff>1</staff></note><note><pitch><step>F</step><octave>4</octave></pitch><duration>16</duration><voice>1</voice><type>quarter</type><staff>1</staff></note><note><pitch><step>D</step><octave>4</octave></pitch><duration>16</duration><voice>1</voice><type>quarter</type><staff>1</staff></note><backup><duration>64</duration></backup><note><pitch><step>A</step><octave>3</octave></pitch><duration>16</duration><voice>2</voice><type>quarter</type><staff>2</staff></note><note><pitch><step>G</step><alter>1</alter><octave>3</octave></pitch><duration>16</duration><voice>2</voice><type>quarter</type><accidental>sharp</accidental><staff>2</staff></note><note><pitch><step>F</step><octave>3</octave></pitch><duration>16</duration><voice>2</voice><type>quarter</type><staff>2</staff></note><note><pitch><step>D</step><octave>3</octave></pitch><duration>16</duration><voice>2</voice><type>quarter</type><staff>2</staff></note></measure><measure number="40"><attributes/><note><pitch><step>A</step><octave>3</octave></pitch><duration>16</duration><voice>1</voice><type>quarter</type><staff>1</staff></note><note><pitch><step>G</step><alter>1</alter><octave>3</octave></pitch><duration>16</duration><voice>1</voice><type>quarter</type><accidental>sharp</accidental><staff>1</staff></note><note><pitch><step>F</step><octave>3</octave></pitch><duration>16</duration><voice>1</voice><type>quarter</type><staff>1</staff></note><note><pitch><step>D</step><octave>3</octave></pitch><duration>16</duration><voice>1</voice><type>quarter</type><staff>1</staff></note><backup><duration>64</duration></backup><note><pitch><step>A</step><octave>2</octave></pitch><duration>16</duration><voice>2</voice><type>quarter</type><staff>2</staff></note><note><pitch><step>G</step><alter>1</alter><octave>2</octave></pitch><duration>16</duration><voice>2</voice><type>quarter</type><accidental>sharp</accidental><staff>2</staff></note><note><pitch><step>F</step><octave>2</octave></pitch><duration>16</duration><voice>2</voice><type>quarter</type><staff>2</staff></note><note><pitch><step>D</step><octave>2</octave></pitch><duration>16</duration><voice>2</voice><type>quarter</type><staff>2</staff></note></measure><measure number="41"><attributes/><note><pitch><step>A</step><octave>2</octave></pitch><duration>64</duration><voice>1</voice><type>whole</type><staff>1</staff></note><backup><duration>64</duration></backup><note><pitch><step>A</step><octave>1</octave></pitch><duration>64</duration><tie type="start"/><voice>2</voice><type>whole</type><staff>2</staff><notations><tied type="start"/></notations></note><note><chord/><pitch><step>A</step><octave>0</octave></pitch><duration>64</duration><tie type="start"/><voice>2</voice><type>whole</type><staff>2</staff><notations><tied type="start"/></notations></note></measure><measure number="42"><attributes/><note><pitch><step>A</step><octave>2</octave></pitch><duration>8</duration><voice>1</voice><type>eighth</type><staff>1</staff><beam number="1">begin</beam></note><note><pitch><step>A</step><octave>2</octave></pitch><duration>8</duration><voice>1</voice><type>eighth</type><staff>1</staff><beam number="1">end</beam></note><note><pitch><step>A</step><octave>2</octave></pitch><duration>48</duration><voice>1</voice><type>half</type><dot/><staff>1</staff></note><backup><duration>64</duration></backup><note><pitch><step>A</step><octave>1</octave></pitch><duration>64</duration><tie type="stop"/><voice>2</voice><type>whole</type><staff>2</staff><notations><tied type="stop"/></notations></note><note><chord/><pitch><step>A</step><octave>0</octave></pitch><duration>64</duration><tie type="stop"/><voice>2</voice><type>whole</type><staff>2</staff><notations><tied type="stop"/></notations></note></measure><measure number="43"><barline location="left"><bar-style>heavy-light</bar-style><repeat direction="forward" times="1" winged="none"/></barline><attributes/><note><pitch><step>A</step><octave>2</octave></pitch><duration>8</duration><voice>1</voice><type>eighth</type><staff>1</staff><beam number="1">begin</beam></note><note><pitch><step>A</step><octave>2</octave></pitch><duration>8</duration><voice>1</voice><type>eighth</type><staff>1</staff><beam number="1">end</beam></note><note><pitch><step>A</step><octave>2</octave></pitch><duration>48</duration><voice>1</voice><type>half</type><dot/><staff>1</staff></note><backup><duration>64</duration></backup><note><rest/><duration>16</duration><voice>2</voice><type>quarter</type><staff>2</staff></note><note><pitch><step>A</step><octave>1</octave></pitch><duration>48</duration><voice>2</voice><type>half</type><dot/><staff>2</staff></note></measure><measure number="44"><attributes/><note><pitch><step>A</step><octave>2</octave></pitch><duration>8</duration><voice>1</voice><type>eighth</type><staff>1</staff><beam number="1">begin</beam></note><note><pitch><step>A</step><octave>2</octave></pitch><duration>8</duration><voice>1</voice><type>eighth</type><staff>1</staff><beam number="1">end</beam></note><note><pitch><step>D</step><octave>3</octave></pitch><duration>48</duration><voice>1</voice><type>half</type><dot/><staff>1</staff></note><backup><duration>64</duration></backup><note><rest/><duration>16</duration><voice>2</voice><type>quarter</type><staff>2</staff></note><note><pitch><step>D</step><octave>2</octave></pitch><duration>48</duration><voice>2</voice><type>half</type><dot/><staff>2</staff></note></measure><measure number="45"><attributes/><note><pitch><step>D</step><octave>3</octave></pitch><duration>8</duration><voice>1</voice><type>eighth</type><staff>1</staff><beam number="1">begin</beam></note><note><pitch><step>D</step><octave>3</octave></pitch><duration>8</duration><voice>1</voice><type>eighth</type><staff>1</staff><beam number="1">end</beam></note><note><pitch><step>C</step><octave>3</octave></pitch><duration>48</duration><voice>1</voice><type>half</type><dot/><staff>1</staff></note><backup><duration>64</duration></backup><note><rest/><duration>16</duration><voice>2</voice><type>quarter</type><staff>2</staff></note><note><pitch><step>C</step><octave>2</octave></pitch><duration>48</duration><voice>2</voice><type>half</type><dot/><staff>2</staff></note></measure><measure number="46"><attributes/><note><pitch><step>C</step><octave>3</octave></pitch><duration>8</duration><voice>1</voice><type>eighth</type><staff>1</staff><beam number="1">begin</beam></note><note><pitch><step>C</step><octave>3</octave></pitch><duration>8</duration><voice>1</voice><type>eighth</type><staff>1</staff><beam number="1">end</beam></note><note><pitch><step>A</step><octave>2</octave></pitch><duration>48</duration><voice>1</voice><type>half</type><dot/><staff>1</staff></note><backup><duration>64</duration></backup><note><rest/><duration>16</duration><voice>2</voice><type>quarter</type><staff>2</staff></note><note><pitch><step>A</step><octave>1</octave></pitch><duration>48</duration><voice>2</voice><type>half</type><dot/><staff>2</staff></note><barline location="right"><bar-style>light-heavy</bar-style><repeat direction="backward" times="1" winged="none"/></barline></measure></part></score-partwise>
